<?xml version="1.0" encoding="UTF-8"?>
<svg version="1.1" xmlns="http://www.w3.org/2000/svg" width="248" height="248">
<path d="M0 0 C0.71936737 -0.00067474 1.43873474 -0.00134949 2.17990112 -0.00204468 C12.59778005 0.01350982 22.46474828 0.34821271 32.5625 3.25 C33.78839844 3.5903125 35.01429688 3.930625 36.27734375 4.28125 C55.76688597 10.23471181 72.43628282 20.77758256 87.5625 34.25 C88.21992188 34.82234375 88.87734375 35.3946875 89.5546875 35.984375 C109.40402931 54.4091229 123.47493659 84.77346071 124.72363281 111.72827148 C124.76958819 115.71490022 124.80915638 119.70060163 124.8125 123.6875 C124.81317474 124.40686737 124.81384949 125.12623474 124.81454468 125.86740112 C124.79899018 136.28528005 124.46428729 146.15224828 121.5625 156.25 C121.2221875 157.47589844 120.881875 158.70179688 120.53125 159.96484375 C114.57778819 179.45438597 104.03491744 196.12378282 90.5625 211.25 C89.99015625 211.90742188 89.4178125 212.56484375 88.828125 213.2421875 C70.4033771 233.09152931 40.03903929 247.16243659 13.08422852 248.41113281 C9.09759978 248.45708819 5.11189837 248.49665638 1.125 248.5 C0.04594894 248.50101212 0.04594894 248.50101212 -1.05490112 248.50204468 C-11.47278005 248.48649018 -21.33974828 248.15178729 -31.4375 245.25 C-32.66339844 244.9096875 -33.88929687 244.569375 -35.15234375 244.21875 C-54.64188597 238.26528819 -71.31128282 227.72241744 -86.4375 214.25 C-87.09492187 213.67765625 -87.75234375 213.1053125 -88.4296875 212.515625 C-108.27902931 194.0908771 -122.34993659 163.72653929 -123.59863281 136.77172852 C-123.64458819 132.78509978 -123.68415638 128.79939837 -123.6875 124.8125 C-123.68817474 124.09313263 -123.68884949 123.37376526 -123.68954468 122.63259888 C-123.67399018 112.21471995 -123.33928729 102.34775172 -120.4375 92.25 C-120.0971875 91.02410156 -119.756875 89.79820313 -119.40625 88.53515625 C-113.45278819 69.04561403 -102.90991744 52.37621718 -89.4375 37.25 C-88.86515625 36.59257813 -88.2928125 35.93515625 -87.703125 35.2578125 C-65.48892358 11.32601819 -31.81685505 0.02668327 0 0 Z " fill="#D4A652" transform="translate(123.4375,-0.25)"/>
<path d="M0 0 C0.71936737 -0.00067474 1.43873474 -0.00134949 2.17990112 -0.00204468 C12.59778005 0.01350982 22.46474828 0.34821271 32.5625 3.25 C33.78839844 3.5903125 35.01429688 3.930625 36.27734375 4.28125 C55.76688597 10.23471181 72.43628282 20.77758256 87.5625 34.25 C88.21992188 34.82234375 88.87734375 35.3946875 89.5546875 35.984375 C109.40402931 54.4091229 123.47493659 84.77346071 124.72363281 111.72827148 C124.76958819 115.71490022 124.80915638 119.70060163 124.8125 123.6875 C124.81317474 124.40686737 124.81384949 125.12623474 124.81454468 125.86740112 C124.79899018 136.28528005 124.46428729 146.15224828 121.5625 156.25 C121.2221875 157.47589844 120.881875 158.70179688 120.53125 159.96484375 C114.57778819 179.45438597 104.03491744 196.12378282 90.5625 211.25 C89.99015625 211.90742188 89.4178125 212.56484375 88.828125 213.2421875 C70.4033771 233.09152931 40.03903929 247.16243659 13.08422852 248.41113281 C9.09759978 248.45708819 5.11189837 248.49665638 1.125 248.5 C0.04594894 248.50101212 0.04594894 248.50101212 -1.05490112 248.50204468 C-11.47278005 248.48649018 -21.33974828 248.15178729 -31.4375 245.25 C-32.66339844 244.9096875 -33.88929687 244.569375 -35.15234375 244.21875 C-54.64188597 238.26528819 -71.31128282 227.72241744 -86.4375 214.25 C-87.09492187 213.67765625 -87.75234375 213.1053125 -88.4296875 212.515625 C-108.27902931 194.0908771 -122.34993659 163.72653929 -123.59863281 136.77172852 C-123.64458819 132.78509978 -123.68415638 128.79939837 -123.6875 124.8125 C-123.68817474 124.09313263 -123.68884949 123.37376526 -123.68954468 122.63259888 C-123.67399018 112.21471995 -123.33928729 102.34775172 -120.4375 92.25 C-120.0971875 91.02410156 -119.756875 89.79820313 -119.40625 88.53515625 C-113.45278819 69.04561403 -102.90991744 52.37621718 -89.4375 37.25 C-88.86515625 36.59257813 -88.2928125 35.93515625 -87.703125 35.2578125 C-65.48892358 11.32601819 -31.81685505 0.02668327 0 0 Z M-73.92285156 62.49707031 C-91.85037145 83.24490926 -97.04571011 109.59905001 -95.4375 136.25 C-94.19734623 146.75111688 -91.09156915 156.76546842 -86.4375 166.25 C-85.98503906 167.18199219 -85.53257813 168.11398438 -85.06640625 169.07421875 C-81.59962527 175.81048423 -77.3350766 181.49438341 -72.4375 187.25 C-71.90640625 187.92675781 -71.3753125 188.60351562 -70.828125 189.30078125 C-56.79008236 206.63984876 -33.39181193 217.91836435 -11.4375 220.25 C18.40597555 221.90667911 42.95113748 215.00666411 66.00390625 195.55078125 C83.38788993 179.91846616 95.02680837 156.63403808 96.78564453 133.28808594 C97.69316662 114.99539924 95.5831211 98.8574037 87.5625 82.25 C87.14484375 81.363125 86.7271875 80.47625 86.296875 79.5625 C75.34784718 57.91614614 56.11298921 41.81083387 33.5625 33.25 C-6.4868033 20.3596372 -45.61787249 31.77728498 -73.92285156 62.49707031 Z " fill="#7A231E" transform="translate(123.4375,-0.25)"/>
<path d="M0 0 C0.598125 0.309375 1.19625 0.61875 1.8125 0.9375 C4.08956772 2.10209704 4.08956772 2.10209704 7 3 C7.99 2.01 8.98 1.02 10 0 C10.495 1.98 10.495 1.98 11 4 C12.32 3.34 13.64 2.68 15 2 C15.36696071 4.81134364 15.71876381 7.62329855 16.0625 10.4375 C16.16626953 11.22060547 16.27003906 12.00371094 16.37695312 12.81054688 C17.04649532 18.42084871 16.80093874 23.40463074 16 29 C17.65 29.66 19.3 30.32 21 31 C20.01 32.65 19.02 34.3 18 36 C19.485 36.495 19.485 36.495 21 37 C21 37.66 21 38.32 21 39 C14.375 43 14.375 43 11 43 C10.5359375 44.2065625 10.5359375 44.2065625 10.0625 45.4375 C9 48 9 48 8 49 C7.84417697 50.34015221 7.74955858 51.68758903 7.68359375 53.03515625 C7.64169922 53.84404297 7.59980469 54.65292969 7.55664062 55.48632812 C7.51732422 56.33646484 7.47800781 57.18660156 7.4375 58.0625 C7.37272461 59.34350586 7.37272461 59.34350586 7.30664062 60.65039062 C7.20023298 62.76672037 7.09958269 64.88333813 7 67 C11.14093698 67.20970559 11.14093698 67.20970559 15 66 C15 66.66 15 67.32 15 68 C20.83155155 70.52365421 26.511834 70.34393953 32.75 70.3125 C33.85585449 70.30903564 34.96170898 70.30557129 36.10107422 70.30200195 C48.18223643 70.14384411 59.93844287 69.12854012 71 64 C71 62.68 71 61.36 71 60 C71.66 60 72.32 60 73 60 C74.25527307 63.84120939 73.48455179 65.88433317 71.75268555 69.53344727 C71.40117432 70.22365967 71.04966309 70.91387207 70.6875 71.625 C70.32503174 72.337771 69.96256348 73.05054199 69.58911133 73.78491211 C61.60420725 88.73735174 46.93444508 97.7535099 31.03564453 102.59863281 C8.14090338 109.12168566 -15.9838925 107.48096885 -37 96 C-40.91539102 93.58607212 -44.48253759 90.95995611 -48 88 C-48.72703125 87.40832031 -49.4540625 86.81664062 -50.203125 86.20703125 C-56.38247039 80.67628127 -62.64647999 71.51638518 -63.1875 63.07421875 C-63.125625 62.38972656 -63.06375 61.70523438 -63 61 C-62.67 62.32 -62.34 63.64 -62 65 C-34.18252475 71.67568477 -34.18252475 71.67568477 -6 69 C-5.01 67.515 -5.01 67.515 -4 66 C-3.236875 66.165 -2.47375 66.33 -1.6875 66.5 C1.03596236 67.09145396 1.03596236 67.09145396 4 67 C3.93963048 64.28940855 3.8524809 61.58406023 3.75 58.875 C3.73582031 58.11445313 3.72164063 57.35390625 3.70703125 56.5703125 C3.48076327 51.32089528 2.51902713 48.13185591 -1 44 C-4.48797488 42.20728609 -4.48797488 42.20728609 -8 41 C-8.99 40.34 -9.98 39.68 -11 39 C-10.67 38.01 -10.34 37.02 -10 36 C-9.34 36 -8.68 36 -8 36 C-8.99 34.35 -9.98 32.7 -11 31 C-9.35 30.67 -7.7 30.34 -6 30 C-6.495 28.515 -6.495 28.515 -7 27 C-7.13119242 23.06422747 -7.07697415 19.51957548 -6.5 15.625 C-5.87049591 11.06109531 -5.91672854 6.5984349 -6 2 C-3.525 2.99 -3.525 2.99 -1 4 C-0.67 2.68 -0.34 1.36 0 0 Z " fill="#73201A" transform="translate(119,76)"/>
<path d="M0 0 C0.66 0 1.32 0 2 0 C2.25652344 0.70382813 2.51304688 1.40765625 2.77734375 2.1328125 C5.14523753 8.23990555 7.89203784 13.6869769 11.5 19.125 C21.85982866 34.80715344 27.26227273 50.407145 24.52734375 69.2578125 C22.8937433 76.75085407 19.66913616 83.30293594 16 90 C17.65 87.36 19.3 84.72 21 82 C55.16317016 83.44211344 55.16317016 83.44211344 68 92 C67.9375 93.8125 67.9375 93.8125 67 96 C55.22742906 101.87878702 41.73395735 102.2718546 28.8125 102.3125 C27.21849365 102.32059692 27.21849365 102.32059692 25.59228516 102.32885742 C12.20655013 102.20655013 12.20655013 102.20655013 9 99 C7.00577205 98.63371323 5.00546689 98.29868656 3 98 C2.89147077 95.12397545 2.8124485 92.25209168 2.75 89.375 C2.69972656 88.16263672 2.69972656 88.16263672 2.6484375 86.92578125 C2.55944755 81.45289929 3.25763526 78.2855044 7 74 C10.29716228 72.32249638 13.50016664 71.16661112 17 70 C16.01 69.01 15.02 68.02 14 67 C14.66 65.68 15.32 64.36 16 63 C14.35 62.34 12.7 61.68 11 61 C11.20625 59.700625 11.4125 58.40125 11.625 57.0625 C12.44086399 49.31738022 11.07589563 41.66464487 10 34 C8.515 34.495 8.515 34.495 7 35 C6.34 34.01 5.68 33.02 5 32 C4.01 32.99 3.02 33.98 2 35 C2 34.34 2 33.68 2 33 C0.515 33.495 0.515 33.495 -1 34 C-1.66 33.34 -2.32 32.68 -3 32 C-3.66 32.99 -4.32 33.98 -5 35 C-6.65 34.34 -8.3 33.68 -10 33 C-9.67 33.66 -9.34 34.32 -9 35 C-8.86746267 38.9098511 -8.91615506 42.44452726 -9.5 46.3125 C-10.16554156 51.22086897 -10.08047882 56.05502384 -10 61 C-11.32 61.66 -12.64 62.32 -14 63 C-13.34 64.32 -12.68 65.64 -12 67 C-12.99 67.99 -13.98 68.98 -15 70 C-14.29875 70.268125 -13.5975 70.53625 -12.875 70.8125 C-11.92625 71.204375 -10.9775 71.59625 -10 72 C-8.989375 72.4125 -7.97875 72.825 -6.9375 73.25 C-3.27214333 75.43361674 -2.00455966 77.23023109 0 81 C0.45640304 83.98253265 0.38255536 86.86701291 0.25 89.875 C0.23195313 90.65875 0.21390625 91.4425 0.1953125 92.25 C0.14855148 94.16720189 0.07682003 96.08376715 0 98 C-3.465 98.495 -3.465 98.495 -7 99 C-19.02407582 83.7715385 -24.8022484 68.85483009 -22.72265625 49.40625 C-20.6327494 37.14546315 -15.2131454 27.15877286 -8.36572266 16.97485352 C-4.76555222 11.55040472 -2.19508301 6.12837576 0 0 Z " fill="#FCFCFC" transform="translate(123,45)"/>
<path d="M0 0 C0.598125 0.309375 1.19625 0.61875 1.8125 0.9375 C4.08956772 2.10209704 4.08956772 2.10209704 7 3 C7.99 2.01 8.98 1.02 10 0 C10.33 1.32 10.66 2.64 11 4 C12.32 3.34 13.64 2.68 15 2 C15.36696071 4.81134364 15.71876381 7.62329855 16.0625 10.4375 C16.16626953 11.22060547 16.27003906 12.00371094 16.37695312 12.81054688 C17.04649532 18.42084871 16.80093874 23.40463074 16 29 C17.65 29.66 19.3 30.32 21 31 C20.01 32.65 19.02 34.3 18 36 C19.485 36.495 19.485 36.495 21 37 C21 37.66 21 38.32 21 39 C14.375 43 14.375 43 11 43 C10.01 45.475 10.01 45.475 9 48 C5.535 48.495 5.535 48.495 2 49 C1.4740625 47.8553125 1.4740625 47.8553125 0.9375 46.6875 C-1.56886394 43.21093066 -4.04063797 42.48476076 -8 41 C-8.99 40.34 -9.98 39.68 -11 39 C-10.67 38.01 -10.34 37.02 -10 36 C-9.34 36 -8.68 36 -8 36 C-8.99 34.35 -9.98 32.7 -11 31 C-9.35 30.67 -7.7 30.34 -6 30 C-6.33 29.01 -6.66 28.02 -7 27 C-7.13119242 23.06422747 -7.07697415 19.51957548 -6.5 15.625 C-5.87049591 11.06109531 -5.91672854 6.5984349 -6 2 C-3.525 2.99 -3.525 2.99 -1 4 C-0.67 2.68 -0.34 1.36 0 0 Z " fill="#79251F" transform="translate(119,76)"/>
<path d="M0 0 C1.84040536 2.2530658 3.24053473 4.26526237 4.6875 6.75 C5.07744141 7.38421875 5.46738281 8.0184375 5.86914062 8.671875 C7.72217024 11.71274411 9.4790762 14.77922018 11 18 C-2.0337654 21.42993826 -13.37156485 21.37782131 -26.625 19.1875 C-27.70523438 19.02185547 -28.78546875 18.85621094 -29.8984375 18.68554688 C-35.94825255 17.7079853 -41.35201299 16.38637708 -47 14 C-47 12.68 -47 11.36 -47 10 C-34.16671492 2.84297563 -14.76112263 -1.36665674 0 0 Z " fill="#FCFBFB" transform="translate(104,127)"/>
<path d="M0 0 C1.67542976 0.28604898 3.34385343 0.61781233 5 1 C5.33 2.32 5.66 3.64 6 5 C3.03 4.505 3.03 4.505 0 4 C0.680625 4.721875 1.36125 5.44375 2.0625 6.1875 C4 9 4 9 3.75 11.8125 C3.5025 12.534375 3.255 13.25625 3 14 C3.99 13.67 4.98 13.34 6 13 C6 12.01 6 11.02 6 10 C8.31 10.33 10.62 10.66 13 11 C13.33 9.68 13.66 8.36 14 7 C15.65 7 17.3 7 19 7 C19.515625 8.11375 20.03125 9.2275 20.5625 10.375 C21.590396 12.35731455 21.590396 12.35731455 23 14 C24.19625 14.33 25.3925 14.66 26.625 15 C27.73875 15.33 28.8525 15.66 30 16 C31.3125 19.5625 31.3125 19.5625 32 23 C32.66 23.33 33.32 23.66 34 24 C34 22.35 34 20.7 34 19 C33.34 19 32.68 19 32 19 C32 18.34 32 17.68 32 17 C32.66 17 33.32 17 34 17 C34 15.35 34 13.7 34 12 C36.475 12.495 36.475 12.495 39 13 C38.505 13.45375 38.01 13.9075 37.5 14.375 C35.77390663 15.87635519 35.77390663 15.87635519 36 18 C42.93 18.495 42.93 18.495 50 19 C50 17.35 50 15.7 50 14 C51 13 51 13 53.3125 12.6875 C56.81320228 13.0945584 57.67028777 14.44483175 60 17 C61.32 17.66 62.64 18.32 64 19 C63.67 22.96 63.34 26.92 63 31 C62.34 31 61.68 31 61 31 C61 29.02 61 27.04 61 25 C59.35 25 57.7 25 56 25 C56.99 27.97 56.99 27.97 58 31 C56.515 30.505 56.515 30.505 55 30 C54.505 26.535 54.505 26.535 54 23 C54.99 22.67 55.98 22.34 57 22 C55.35 21.67 53.7 21.34 52 21 C52 24.63 52 28.26 52 32 C51.34 31.67 50.68 31.34 50 31 C50 27.7 50 24.4 50 21 C49.01 21 48.02 21 47 21 C47 24.3 47 27.6 47 31 C46.01 31 45.02 31 44 31 C44 30.34 44 29.68 44 29 C43.01 29 42.02 29 41 29 C41 27 41 27 43 25 C42.01 24.34 41.02 23.68 40 23 C41.32 23 42.64 23 44 23 C44.495 21.515 44.495 21.515 45 20 C41.04 20.495 41.04 20.495 37 21 C36.34 24.3 35.68 27.6 35 31 C34.34 30.67 33.68 30.34 33 30 C33 28.68 33 27.36 33 26 C31.35 26.33 29.7 26.66 28 27 C27.34 25.68 26.68 24.36 26 23 C26.66 23 27.32 23 28 23 C27.34 21.68 26.68 20.36 26 19 C25.67 19.66 25.34 20.32 25 21 C22.69 20.67 20.38 20.34 18 20 C18.66 20.66 19.32 21.32 20 22 C20.99 22 21.98 22 23 22 C23.33 24.31 23.66 26.62 24 29 C23.34 29 22.68 29 22 29 C22 28.34 22 27.68 22 27 C21.071875 27.103125 20.14375 27.20625 19.1875 27.3125 C16 27 16 27 14.0625 24.75 C12.94347399 21.85369738 12.85183606 20.81822057 14 18 C14.33 19.32 14.66 20.64 15 22 C15.2475 21.360625 15.495 20.72125 15.75 20.0625 C17 18 17 18 21 17 C18.36 16.34 15.72 15.68 13 15 C12.01 17.97 11.02 20.94 10 24 C9.34 23.67 8.68 23.34 8 23 C8.60990891 19.44219804 9.5783681 16.3171411 11 13 C8.43004926 14.28497537 8.09565537 15.49912373 6.875 18.0625 C6.52179688 18.79597656 6.16859375 19.52945313 5.8046875 20.28515625 C5.40636719 21.13400391 5.40636719 21.13400391 5 22 C4.34 21.67 3.68 21.34 3 21 C3.0928125 19.824375 3.0928125 19.824375 3.1875 18.625 C3.125625 17.75875 3.06375 16.8925 3 16 C2.01 15.34 1.02 14.68 0 14 C0.33 15.98 0.66 17.96 1 20 C0.34 20 -0.32 20 -1 20 C-2.60725635 16.78548731 -2.05748185 13.56387464 -2 10 C-1.01 10.33 -0.02 10.66 1 11 C1 10.34 1 9.68 1 9 C0.01 8.67 -0.98 8.34 -2 8 C-3.65 10.64 -5.3 13.28 -7 16 C-8 12 -8 12 -6.5625 9.5 C-6.046875 8.675 -5.53125 7.85 -5 7 C-5 5.68 -5 4.36 -5 3 C-4.360625 2.690625 -3.72125 2.38125 -3.0625 2.0625 C-1.06389179 1.1654837 -1.06389179 1.1654837 0 0 Z " fill="#F1E7E7" transform="translate(73,210)"/>
<path d="M0 0 C0.89138672 0.18175781 0.89138672 0.18175781 1.80078125 0.3671875 C2.62964844 0.53476563 3.45851563 0.70234375 4.3125 0.875 C5.11300781 1.03742188 5.91351563 1.19984375 6.73828125 1.3671875 C8.35283203 1.68042969 8.35283203 1.68042969 10 2 C10.79317627 2.16612793 11.58635254 2.33225586 12.40356445 2.50341797 C19.16676751 3.85012966 25.67147181 4.384053 32.5625 4.375 C33.59592529 4.37628906 34.62935059 4.37757813 35.6940918 4.37890625 C43.98550479 4.26635024 51.62077686 3.00418573 59.61328125 0.875 C63 0 63 0 66 0 C66.99 3.96 66.99 3.96 68 8 C63.66917001 9.34158042 59.33577219 10.67447805 55 12 C54.23558594 12.23460937 53.47117188 12.46921875 52.68359375 12.7109375 C46.19941303 14.64358748 46.19941303 14.64358748 42.4375 12.625 C40 11 40 11 38 9 C35.41645782 8.83312552 35.41645782 8.83312552 33 9 C32.67 10.65 32.34 12.3 32 14 C25.07 13.505 25.07 13.505 18 13 C17.67 12.01 17.34 11.02 17 10 C17.99 9.34 18.98 8.68 20 8 C18.68 7.67 17.36 7.34 16 7 C16 8.65 16 10.3 16 12 C15.34 12 14.68 12 14 12 C14 12.66 14 13.32 14 14 C14.66 14 15.32 14 16 14 C16 15.65 16 17.3 16 19 C15.01 18.67 14.02 18.34 13 18 C11.8125 14.4375 11.8125 14.4375 11 11 C10.113125 11 9.22625 11 8.3125 11 C3.96227699 9.68672513 3.07985842 7.71698739 0.8828125 3.91015625 C0 2 0 2 0 0 Z " fill="#7B241E" transform="translate(91,215)"/>
<path d="M0 0 C7.45794808 0.61925574 14.76250489 1.73706354 22.125 3.0625 C23.176875 3.24876953 24.22875 3.43503906 25.3125 3.62695312 C27.87560908 4.08132246 30.43806645 4.53905697 33 5 C32.34 6.32 31.68 7.64 31 9 C33.859563 10.4297815 36.57717082 10.44653331 39.7578125 10.75390625 C40.42086395 10.81907944 41.08391541 10.88425262 41.76705933 10.95140076 C43.88603017 11.15881787 46.00548553 11.36072145 48.125 11.5625 C49.56123321 11.70211132 50.99743166 11.84208084 52.43359375 11.98242188 C55.95533508 12.32577284 59.47753158 12.66418081 63 13 C62.67 13.66 62.34 14.32 62 15 C75.86 15.99 75.86 15.99 90 17 C90 17.33 90 17.66 90 18 C76.47 19.32 62.94 20.64 49 22 C49.99 20.68 50.98 19.36 52 18 C50.06681688 16.06681688 46.55123079 16.47659451 43.90234375 16.24609375 C43.19348526 16.18092056 42.48462677 16.11574738 41.75428772 16.04859924 C39.48238485 15.84069523 37.2099759 15.63903456 34.9375 15.4375 C33.40035336 15.29793582 31.8632434 15.15796716 30.32617188 15.01757812 C26.55119127 14.67368448 22.77574519 14.33539042 19 14 C19 13.34 19 12.68 19 12 C20.65 11.34 22.3 10.68 24 10 C24 9.34 24 8.68 24 8 C23.02933594 7.89816406 22.05867188 7.79632813 21.05859375 7.69140625 C16.50746463 7.04124495 12.36000537 5.52466779 8.0625 3.9375 C7.28326172 3.65583984 6.50402344 3.37417969 5.70117188 3.08398438 C3.79859875 2.39532294 1.89898275 1.69850097 0 1 C0 0.67 0 0.34 0 0 Z " fill="#FCF8F2" transform="translate(74,183)"/>
<path d="M0 0 C0.1546875 1.0828125 0.1546875 1.0828125 0.3125 2.1875 C1.06029278 5.24665229 2.34777805 7.34207773 4 10 C4 10.66 4 11.32 4 12 C2.125 11.375 2.125 11.375 0 10 C-1.25 6.875 -1.25 6.875 -2 4 C-2.66 4 -3.32 4 -4 4 C-3.505 5.093125 -3.01 6.18625 -2.5 7.3125 C-1 11 -1 11 -1 14 C-4 13 -4 13 -5 12 C-5 13.32 -5 14.64 -5 16 C-10.53846154 16.36923077 -10.53846154 16.36923077 -12.875 14.5 C-13.24625 14.005 -13.6175 13.51 -14 13 C-11 13 -11 13 -8 14 C-8.95865509 11.66924071 -8.95865509 11.66924071 -12 10 C-9 8 -9 8 -6 8 C-6 7.34 -6 6.68 -6 6 C-8.97 7.32 -11.94 8.64 -15 10 C-14.34 13.3 -13.68 16.6 -13 20 C-13.99 19.67 -14.98 19.34 -16 19 C-16 18.34 -16 17.68 -16 17 C-16.99 17 -17.98 17 -19 17 C-19 17.99 -19 18.98 -19 20 C-20.32 20 -21.64 20 -23 20 C-23.33 20.99 -23.66 21.98 -24 23 C-24.99 22.67 -25.98 22.34 -27 22 C-26.67 20.68 -26.34 19.36 -26 18 C-26.66 18.33 -27.32 18.66 -28 19 C-28 20.98 -28 22.96 -28 25 C-28.99 24.67 -29.98 24.34 -31 24 C-31 23.34 -31 22.68 -31 22 C-32.65 22 -34.3 22 -36 22 C-36.33 20.35 -36.66 18.7 -37 17 C-35.35 17 -33.7 17 -32 17 C-32 16.34 -32 15.68 -32 15 C-34.64 15 -37.28 15 -40 15 C-37.13367056 12.13367056 -33.70683574 11.7684332 -29.875 10.875 C-29.12089844 10.69324219 -28.36679688 10.51148438 -27.58984375 10.32421875 C-25.72808054 9.87645291 -23.86422747 9.43739278 -22 9 C-22 8.34 -22 7.68 -22 7 C-21.68197057 5.33034549 -21.35015049 3.66321482 -21 2 C-19.68 2.33 -18.36 2.66 -17 3 C-17.99 3.33 -18.98 3.66 -20 4 C-19.67 4.99 -19.34 5.98 -19 7 C-13.36512276 5.50341289 -5.30533316 0 0 0 Z " fill="#F5EFEE" transform="translate(179,214)"/>
<path d="M0 0 C0.66 0 1.32 0 2 0 C5.88105294 8.33495503 9.30891489 16.10988301 7.25 25.375 C6.06037285 27.87321701 4.78425219 29.89133832 3 32 C-0.09322404 31.6655974 -1.58887768 31.4404882 -3.75 29.125 C-6.45056316 24.53404263 -6.58060491 20.17899584 -6 15 C-4.5113674 9.77214806 -2.49671074 4.82472481 0 0 Z " fill="#D7251B" transform="translate(123,80)"/>
<path d="M0 0 C1.67542976 0.28604898 3.34385343 0.61781233 5 1 C5.33 2.32 5.66 3.64 6 5 C3.03 4.505 3.03 4.505 0 4 C0.680625 4.721875 1.36125 5.44375 2.0625 6.1875 C4 9 4 9 3.75 11.8125 C3.5025 12.534375 3.255 13.25625 3 14 C3.99 13.67 4.98 13.34 6 13 C6 12.01 6 11.02 6 10 C8.31 10.33 10.62 10.66 13 11 C13.33 9.68 13.66 8.36 14 7 C16.3125 6.75 16.3125 6.75 19 7 C20.875 8.8125 20.875 8.8125 22 11 C21.67 11.99 21.34 12.98 21 14 C20.566875 13.34 20.13375 12.68 19.6875 12 C19.130625 11.34 18.57375 10.68 18 10 C17.01 10 16.02 10 15 10 C15 10.66 15 11.32 15 12 C15.66 12.66 16.32 13.32 17 14 C16.37609375 14.07089844 15.7521875 14.14179688 15.109375 14.21484375 C12.80770679 14.80004532 12.80770679 14.80004532 11.953125 17.06640625 C11.72109375 17.89011719 11.4890625 18.71382812 11.25 19.5625 C11.00765625 20.38878906 10.7653125 21.21507812 10.515625 22.06640625 C10.34546875 22.70449219 10.1753125 23.34257812 10 24 C9.34 23.67 8.68 23.34 8 23 C8.60990891 19.44219804 9.5783681 16.3171411 11 13 C8.43004926 14.28497537 8.09565537 15.49912373 6.875 18.0625 C6.52179688 18.79597656 6.16859375 19.52945313 5.8046875 20.28515625 C5.40636719 21.13400391 5.40636719 21.13400391 5 22 C4.34 21.67 3.68 21.34 3 21 C3.0928125 19.824375 3.0928125 19.824375 3.1875 18.625 C3.125625 17.75875 3.06375 16.8925 3 16 C2.01 15.34 1.02 14.68 0 14 C0.33 15.98 0.66 17.96 1 20 C0.34 20 -0.32 20 -1 20 C-2.60725635 16.78548731 -2.05748185 13.56387464 -2 10 C-1.01 10.33 -0.02 10.66 1 11 C1 10.34 1 9.68 1 9 C0.01 8.67 -0.98 8.34 -2 8 C-3.65 10.64 -5.3 13.28 -7 16 C-8 12 -8 12 -6.5625 9.5 C-6.046875 8.675 -5.53125 7.85 -5 7 C-5 5.68 -5 4.36 -5 3 C-4.360625 2.690625 -3.72125 2.38125 -3.0625 2.0625 C-1.06389179 1.1654837 -1.06389179 1.1654837 0 0 Z " fill="#F0E6E5" transform="translate(73,210)"/>
<path d="M0 0 C2.34572071 2.11871548 2.89543972 3.4025127 3.4375 6.5 C2.86227821 9.78698168 1.53718279 10.91055535 -1 13 C-3.84083641 14.42041821 -5.85477278 14.31452272 -9 14 C-12.04743295 11.9149143 -12.85563059 10.67853624 -13.625 7.0625 C-12.90966731 3.55736984 -11.6746056 1.97127425 -8.7890625 -0.1484375 C-5.58454672 -1.67373104 -3.27049287 -1.04902601 0 0 Z " fill="#F2EAEA" transform="translate(223,61)"/>
<path d="M0 0 C4.36689189 1.42398649 4.36689189 1.42398649 5.875 3.9375 C6.52588557 8.33097757 6.34938867 10.24748011 3.8125 13.9375 C0.875 15.9375 0.875 15.9375 -2.75 16 C-6.125 14.9375 -6.125 14.9375 -8.125 13.3125 C-9.61297547 9.77855826 -9.16803938 7.58813783 -8.125 3.9375 C-5.40407857 0.82787551 -4.16245909 -0.08324918 0 0 Z " fill="#F3EBEA" transform="translate(200.125,36.0625)"/>
<path d="M0 0 C2.375 1.5 2.375 1.5 4 4 C4.61537233 6.8065579 4.65874393 9.19890623 4 12 C1.875 14.5625 1.875 14.5625 -1 16 C-4.48787032 16 -6.22839909 15.66872079 -8.875 13.375 C-10.46134558 10.02604821 -10.45746657 7.65973254 -10 4 C-7.26646839 -0.10029741 -4.80388991 -0.80064832 0 0 Z " fill="#F4EDED" transform="translate(93,12)"/>
<path d="M0 0 C0.61875 0.33 1.2375 0.66 1.875 1 C3.91018344 2.14193235 3.91018344 2.14193235 6 2 C6 2.66 6 3.32 6 4 C5.34 4 4.68 4 4 4 C3.690625 4.94875 3.38125 5.8975 3.0625 6.875 C2 10 2 10 1 12 C0.34 12 -0.32 12 -1 12 C-1.88277755 16.51815281 -2.10589503 20.77512694 -2.0625 25.375 C-2.04896484 27.24285156 -2.04896484 27.24285156 -2.03515625 29.1484375 C-2.02355469 30.08945313 -2.01195313 31.03046875 -2 32 C-2.66 32 -3.32 32 -4 32 C-4 32.99 -4 33.98 -4 35 C-6.375 34.6875 -6.375 34.6875 -9 34 C-9.66 33.01 -10.32 32.02 -11 31 C-9.35 30.67 -7.7 30.34 -6 30 C-6.33 29.01 -6.66 28.02 -7 27 C-7.13119242 23.06422747 -7.07697415 19.51957548 -6.5 15.625 C-5.87049591 11.06109531 -5.91672854 6.5984349 -6 2 C-3.525 2.99 -3.525 2.99 -1 4 C-0.67 2.68 -0.34 1.36 0 0 Z " fill="#BE2D24" transform="translate(119,76)"/>
<path d="M0 0 C3.88707271 3.09198965 5.25308891 5.16943373 6 10 C4.23628182 11.03307771 2.46374967 12.05112049 0.6875 13.0625 C-0.29863281 13.63097656 -1.28476562 14.19945312 -2.30078125 14.78515625 C-5 16 -5 16 -8 15 C-10.5208718 11.55038596 -10.51762367 8.14098937 -10 4 C-6.99746894 0.65432253 -4.50513222 -1.01365475 0 0 Z " fill="#F7F2F1" transform="translate(32,171)"/>
<path d="M0 0 C4.84688192 0.78175515 9.3766367 2.39844278 14 4 C13.40298507 11.28358209 13.40298507 11.28358209 11.875 14 C8.83791401 15.61977919 6.36836849 15.3545651 3 15 C0.796875 13.79296875 0.796875 13.79296875 -1 12 C-1.42578125 9.58984375 -1.42578125 9.58984375 -1.3125 6.9375 C-1.28800781 6.05964844 -1.26351562 5.18179688 -1.23828125 4.27734375 C-1 2 -1 2 0 0 Z " fill="#F8F3F3" transform="translate(222,151)"/>
<path d="M0 0 C4.95 0 9.9 0 15 0 C15 1.65 15 3.3 15 5 C13.02 5.99 11.04 6.98 9 8 C10.98 8.66 12.96 9.32 15 10 C15 11.65 15 13.3 15 15 C10.05 15.33 5.1 15.66 0 16 C0 14.68 0 13.36 0 12 C1.98 11.67 3.96 11.34 6 11 C4.02 10.34 2.04 9.68 0 9 C0.33 7.68 0.66 6.36 1 5 C2.32 4.67 3.64 4.34 5 4 C3.35 3.67 1.7 3.34 0 3 C0 2.01 0 1.02 0 0 Z " fill="#F5EEEE" transform="translate(226,116)"/>
<path d="M0 0 C1.32 0.33 2.64 0.66 4 1 C4 3.97 4 6.94 4 10 C5.32 8.02 6.64 6.04 8 4 C8.99 4.99 9.98 5.98 11 7 C8.69 10.63 6.38 14.26 4 18 C2.68 17.67 1.36 17.34 0 17 C-0.33 14.03 -0.66 11.06 -1 8 C-1.433125 8.825 -1.86625 9.65 -2.3125 10.5 C-3.1478125 11.7375 -3.1478125 11.7375 -4 13 C-4.99 13 -5.98 13 -7 13 C-6.65986985 7.55791766 -3.29703472 4.06331802 0 0 Z " fill="#F4ECEC" transform="translate(183,24)"/>
<path d="M0 0 C0.375 2.25 0.375 2.25 0 5 C-3 7.3125 -3 7.3125 -6 9 C-3.69 9 -1.38 9 1 9 C1.33 10.32 1.66 11.64 2 13 C-2.95 13.33 -7.9 13.66 -13 14 C-13.33 12.68 -13.66 11.36 -14 10 C-12.35 8.68 -10.7 7.36 -9 6 C-11.97 5.505 -11.97 5.505 -15 5 C-15 4.01 -15 3.02 -15 2 C-13.2508503 1.66223316 -11.50063855 1.32996329 -9.75 1 C-8.77546875 0.814375 -7.8009375 0.62875 -6.796875 0.4375 C-4 0 -4 0 0 0 Z " fill="#F1E9E8" transform="translate(22,131)"/>
<path d="M0 0 C0.99 0.66 1.98 1.32 3 2 C2.41196203 5.02419525 1.77321882 8.01758453 1 11 C1.598125 10.505 2.19625 10.01 2.8125 9.5 C5 8 5 8 8 8 C7.63602389 10.83022801 7.09235225 11.90783172 5.0390625 13.95703125 C4.24242187 14.56933594 3.44578125 15.18164062 2.625 15.8125 C1.83351563 16.43769531 1.04203125 17.06289062 0.2265625 17.70703125 C-0.50820313 18.13371094 -1.24296875 18.56039062 -2 19 C-2.99 18.67 -3.98 18.34 -5 18 C-4.835 16.88625 -4.67 15.7725 -4.5 14.625 C-3.9544542 11.27967967 -3.9544542 11.27967967 -4 9 C-6.475 10.485 -6.475 10.485 -9 12 C-9 8 -9 8 -7.03125 5.859375 C-6.1959375 5.16328125 -5.360625 4.4671875 -4.5 3.75 C-3.6646875 3.04359375 -2.829375 2.3371875 -1.96875 1.609375 C-0.99421875 0.81273437 -0.99421875 0.81273437 0 0 Z " fill="#F5EEEE" transform="translate(40,183)"/>
<path d="M0 0 C5.12583611 -0.10251672 9.94997778 -0.03590199 15 1 C14.67 2.65 14.34 4.3 14 6 C11.36 6.66 8.72 7.32 6 8 C6 8.66 6 9.32 6 10 C7.423125 9.938125 7.423125 9.938125 8.875 9.875 C12 10 12 10 14 12 C13.67 12.66 13.34 13.32 13 14 C8.38 13.34 3.76 12.68 -1 12 C-1 10.35 -1 8.7 -1 7 C0.98 6.01 2.96 5.02 5 4 C3.35 3.67 1.7 3.34 0 3 C0 2.01 0 1.02 0 0 Z " fill="#F4EDED" transform="translate(9,100)"/>
<path d="M0 0 C0.66 1.32 1.32 2.64 2 4 C3.32 3.34 4.64 2.68 6 2 C6.36696071 4.81134364 6.71876381 7.62329855 7.0625 10.4375 C7.16626953 11.22060547 7.27003906 12.00371094 7.37695312 12.81054688 C8.72365849 24.09500908 8.72365849 24.09500908 7 29 C4.94946289 30.25170898 4.94946289 30.25170898 3 31 C3.02320313 30.154375 3.04640625 29.30875 3.0703125 28.4375 C3.17438066 21.89607279 2.9612306 16.25142254 1 10 C0.34 10 -0.32 10 -1 10 C-2.1875 7.25 -2.1875 7.25 -3 4 C-1.625 1.625 -1.625 1.625 0 0 Z " fill="#B22B23" transform="translate(128,76)"/>
<path d="M0 0 C3.7602985 0.58107632 6.53035032 1.65199496 9.8125 3.5625 C10.60269531 4.01753906 11.39289063 4.47257813 12.20703125 4.94140625 C12.79871094 5.29074219 13.39039063 5.64007813 14 6 C12.25 11.75 12.25 11.75 10 14 C7.375 14.125 7.375 14.125 5 14 C4.67 13.01 4.34 12.02 4 11 C1.36 10.67 -1.28 10.34 -4 10 C-3.67 8.68 -3.34 7.36 -3 6 C-0.69 6.33 1.62 6.66 4 7 C3.34 6.401875 2.68 5.80375 2 5.1875 C0 3 0 3 0 0 Z " fill="#EBDEDD" transform="translate(216,167)"/>
<path d="M0 0 C0 1.32 0 2.64 0 4 C-0.66 4.66 -1.32 5.32 -2 6 C-2 6.99 -2 7.98 -2 9 C-0.35 9.33 1.3 9.66 3 10 C3 10.99 3 11.98 3 13 C-2.28 13 -7.56 13 -13 13 C-13.33 11.35 -13.66 9.7 -14 8 C-12.37615858 6.85252535 -10.75088944 5.7070709 -9.125 4.5625 C-8.22007813 3.92441406 -7.31515625 3.28632813 -6.3828125 2.62890625 C-2.53717026 0 -2.53717026 0 0 0 Z " fill="#E9DBDA" transform="translate(25,147)"/>
<path d="M0 0 C2.84248268 2.550946 3.91018797 3.9896147 4.25 7.8125 C4.1675 8.534375 4.085 9.25625 4 10 C3.01 10 2.02 10 1 10 C0.34 8.35 -0.32 6.7 -1 5 C-2.98 5 -4.96 5 -7 5 C-7.33 6.98 -7.66 8.96 -8 11 C-7.34 10.67 -6.68 10.34 -6 10 C-5.67 9.01 -5.34 8.02 -5 7 C-4.01 7 -3.02 7 -2 7 C-1.67 8.65 -1.34 10.3 -1 12 C-6.75 15 -6.75 15 -9 15 C-12.85987261 8.0843949 -12.85987261 8.0843949 -12 4 C-8.37322868 -0.06637997 -5.34118336 -0.87401182 0 0 Z " fill="#F2E9E9" transform="translate(230,77)"/>
<path d="M0 0 C0.99 0.33 1.98 0.66 3 1 C2.34 2.98 1.68 4.96 1 7 C2.65 7.33 4.3 7.66 6 8 C6.33 6.68 6.66 5.36 7 4 C8.32 4.33 9.64 4.66 11 5 C10.40362909 6.58628608 9.79754075 8.16892059 9.1875 9.75 C8.68283203 11.07257812 8.68283203 11.07257812 8.16796875 12.421875 C7.03153178 14.93039808 5.73457073 16.87279005 4 19 C3.34 18.67 2.68 18.34 2 18 C2.57584432 15.61435923 3.22227595 13.33317216 4 11 C2.35 10.67 0.7 10.34 -1 10 C-1.66 11.65 -2.32 13.3 -3 15 C-3.99 14.67 -4.98 14.34 -6 14 C-4.45941767 8.98491285 -2.97068161 4.3852919 0 0 Z " fill="#F4EDED" transform="translate(167,15)"/>
<path d="M0 0 C0.103125 0.721875 0.20625 1.44375 0.3125 2.1875 C1.06029278 5.24665229 2.34777805 7.34207773 4 10 C4 10.66 4 11.32 4 12 C2.125 11.375 2.125 11.375 0 10 C-1.25 6.875 -1.25 6.875 -2 4 C-2.66 4 -3.32 4 -4 4 C-3.505 5.093125 -3.01 6.18625 -2.5 7.3125 C-1 11 -1 11 -1 14 C-4 13 -4 13 -5 12 C-5 13.32 -5 14.64 -5 16 C-10.53846154 16.36923077 -10.53846154 16.36923077 -12.875 14.5 C-13.24625 14.005 -13.6175 13.51 -14 13 C-11 13 -11 13 -8 14 C-8.95865509 11.66924071 -8.95865509 11.66924071 -12 10 C-9 8 -9 8 -6 8 C-6 7.34 -6 6.68 -6 6 C-10.455 7.485 -10.455 7.485 -15 9 C-15.66 8.34 -16.32 7.68 -17 7 C-16.33613281 6.74605469 -15.67226562 6.49210938 -14.98828125 6.23046875 C-10.53300636 4.49388715 -4.55366901 0 0 0 Z " fill="#ECE0DF" transform="translate(179,214)"/>
<path d="M0 0 C3.79620155 1.26540052 4.48678188 2.78218431 6.6875 6.0625 C7.31011719 6.98160156 7.93273437 7.90070313 8.57421875 8.84765625 C9.27998047 9.91306641 9.27998047 9.91306641 10 11 C9.34 12.32 8.68 13.64 8 15 C2.88634986 13.9318153 -2.07227969 12.76892524 -7 11 C-6.67 9.68 -6.34 8.36 -6 7 C-4.35 7 -2.7 7 -1 7 C0.25476971 4.49046058 -0.32189255 3.62766637 -1 1 C-0.67 0.67 -0.34 0.34 0 0 Z " fill="#EEE4E3" transform="translate(210,179)"/>
<path d="M0 0 C1.12894876 0.93274109 2.25300876 1.87140122 3.375 2.8125 C4.00148438 3.33457031 4.62796875 3.85664062 5.2734375 4.39453125 C7 6 7 6 9 9 C8.55555556 14.44444444 8.55555556 14.44444444 6 17 C2.8125 17.5625 2.8125 17.5625 -1 17 C-3.65904082 14.93357487 -5.83891188 12.5749135 -8 10 C-7.67 9.01 -7.34 8.02 -7 7 C-4.43548915 8.09907608 -2.90445054 9.0984449 -0.9375 11.125 C0.90993327 13.34771071 0.90993327 13.34771071 4 13 C3.52797514 8.75177626 1.03344482 6.80010291 -2 4 C-1.34 2.68 -0.68 1.36 0 0 Z " fill="#F1E9E8" transform="translate(45,37)"/>
<path d="M0 0 C3.85025879 0.60355408 6.86101159 1.76772603 10.3125 3.5625 C11.19550781 4.01753906 12.07851562 4.47257813 12.98828125 4.94140625 C13.65214844 5.29074219 14.31601563 5.64007813 15 6 C14.67 7.65 14.34 9.3 14 11 C9.05 11.66 4.1 12.32 -1 13 C-1 11.68 -1 10.36 -1 9 C0.32 9 1.64 9 3 9 C3 7.35 3 5.7 3 4 C2.01 3.67 1.02 3.34 0 3 C0 2.01 0 1.02 0 0 Z " fill="#EEE4E3" transform="translate(225,135)"/>
<path d="M0 0 C1.07174763 3.65188082 0.76411467 6.26432828 0 10 C-0.99 9.67 -1.98 9.34 -3 9 C-2.67 7.68 -2.34 6.36 -2 5 C-2.99 5.495 -2.99 5.495 -4 6 C-4 7.98 -4 9.96 -4 12 C-4.99 11.67 -5.98 11.34 -7 11 C-7 10.34 -7 9.68 -7 9 C-8.65 9 -10.3 9 -12 9 C-12.33 7.35 -12.66 5.7 -13 4 C-11.35 4 -9.7 4 -8 4 C-8 3.34 -8 2.68 -8 2 C-10.64 2 -13.28 2 -16 2 C-11.58316198 -2.41683802 -5.67113822 -0.80310236 0 0 Z " fill="#ECDFDF" transform="translate(155,227)"/>
<path d="M0 0 C0.33 0.99 0.66 1.98 1 3 C-0.65 3.66 -2.3 4.32 -4 5 C-3.34 5.66 -2.68 6.32 -2 7 C-0.68 6.34 0.64 5.68 2 5 C2 6.32 2 7.64 2 9 C1.01 9.495 1.01 9.495 0 10 C0.33 10.66 0.66 11.32 1 12 C2.65 11.34 4.3 10.68 6 10 C6.33 10.99 6.66 11.98 7 13 C1.6219293 17.03355303 1.6219293 17.03355303 -1.02734375 16.890625 C-3.70920571 15.67980415 -4.42235258 14.25360295 -5.8125 11.6875 C-6.25207031 10.90761719 -6.69164063 10.12773437 -7.14453125 9.32421875 C-8.12326157 6.66511126 -8.11980149 5.57776086 -7 3 C-2.82142857 0 -2.82142857 0 0 0 Z " fill="#F5EFEF" transform="translate(71,20)"/>
<path d="M0 0 C2.97 0.33 5.94 0.66 9 1 C9 1.99 9 2.98 9 4 C6.03 3.505 6.03 3.505 3 3 C3 3.99 3 4.98 3 6 C4.65 6 6.3 6 8 6 C8 6.99 8 7.98 8 9 C6.02 9 4.04 9 2 9 C2 9.99 2 10.98 2 12 C4.97 12.495 4.97 12.495 8 13 C8 13.99 8 14.98 8 16 C4.7 15.67 1.4 15.34 -2 15 C-1.34 10.05 -0.68 5.1 0 0 Z " fill="#F6F1F0" transform="translate(136,8)"/>
<path d="M0 0 C0.99 0.33 1.98 0.66 3 1 C1.02 3.97 1.02 3.97 -1 7 C-0.01 6.67 0.98 6.34 2 6 C4.33299825 5.96045766 6.66708189 5.95598268 9 6 C9.75 8.75 9.75 8.75 10 12 C8.0625 14.375 8.0625 14.375 6 16 C5.01 15.67 4.02 15.34 3 15 C3 14.34 3 13.68 3 13 C3.66 12.67 4.32 12.34 5 12 C5.33 11.01 5.66 10.02 6 9 C5.443125 9.350625 4.88625 9.70125 4.3125 10.0625 C1.44074289 11.22672585 -0.07133328 10.8706847 -3 10 C-3.33 9.67 -3.66 9.34 -4 9 C-3.75 5.5625 -3.75 5.5625 -3 2 C-2.01 1.34 -1.02 0.68 0 0 Z " fill="#F3ECEB" transform="translate(200,192)"/>
<path d="M0 0 C0.99 0.66 1.98 1.32 3 2 C2.34 3.32 1.68 4.64 1 6 C1.99 6 2.98 6 4 6 C4.33 5.01 4.66 4.02 5 3 C7.875 2.375 7.875 2.375 11 2 C13 4 13 4 13.25 6.9375 C13 10 13 10 11 13 C10.01 12.67 9.02 12.34 8 12 C8.66 10.02 9.32 8.04 10 6 C9.01 6 8.02 6 7 6 C6.34 7.32 5.68 8.64 5 10 C2.625 10.125 2.625 10.125 0 10 C-0.66 9.34 -1.32 8.68 -2 8 C-1.42307692 1.42307692 -1.42307692 1.42307692 0 0 Z " fill="#F5EFEF" transform="translate(14,85)"/>
<path d="M0 0 C4.75 0.75 4.75 0.75 7 3 C7.125 6.625 7.125 6.625 7 10 C1.375 12.125 1.375 12.125 -2 11 C-2.94693195 7.2983569 -3.30443767 5.60887535 -1.5625 2.125 C-1.046875 1.42375 -0.53125 0.7225 0 0 Z " fill="#C9281F" transform="translate(122,113)"/>
<path d="M0 0 C1.08685737 3.26057211 0.85506174 3.86086923 0 7 C-0.08966287 8.49789742 -0.13013894 9.99943021 -0.125 11.5 C-0.12757812 12.2528125 -0.13015625 13.005625 -0.1328125 13.78125 C-0.07574922 16.00359506 -0.07574922 16.00359506 0.5703125 18.09375 C1 20 1 20 0 23 C0.66 23.33 1.32 23.66 2 24 C1.01 26.475 1.01 26.475 0 29 C-6.625 29.25 -6.625 29.25 -10 27 C-9.505 25.515 -9.505 25.515 -9 24 C-8.34 24 -7.68 24 -7 24 C-6.67 23.34 -6.34 22.68 -6 22 C-5.01 21.67 -4.02 21.34 -3 21 C-3.33 19.68 -3.66 18.36 -4 17 C-3.34 17.33 -2.68 17.66 -2 18 C-2.02320312 17.20335938 -2.04640625 16.40671875 -2.0703125 15.5859375 C-2.24956063 5.06151142 -2.24956063 5.06151142 0 0 Z " fill="#5E211D" transform="translate(118,88)"/>
<path d="M0 0 C0.33 1.32 0.66 2.64 1 4 C-0.134375 3.979375 -1.26875 3.95875 -2.4375 3.9375 C-5.81575674 3.58422523 -5.81575674 3.58422523 -7 5 C-7.04063832 6.66617115 -7.042721 8.33388095 -7 10 C-4.525 10.99 -4.525 10.99 -2 12 C-2 12.99 -2 13.98 -2 15 C-8.30162703 14.40550688 -8.30162703 14.40550688 -10.9375 12.875 C-12.6712306 9.81547541 -12.42145216 7.43182475 -12 4 C-8.92690336 -0.99378204 -5.33129622 -0.35541975 0 0 Z " fill="#F4EDEC" transform="translate(160,12)"/>
<path d="M0 0 C1.65 0 3.3 0 5 0 C4.67 6.27 4.34 12.54 4 19 C9.47825081 19.4472136 9.47825081 19.4472136 12 18 C11.67 18.99 11.34 19.98 11 21 C10.2265625 20.97679687 9.453125 20.95359375 8.65625 20.9296875 C2.36674562 20.82071094 -2.98340199 21.14873907 -9 23 C-8.67 21.35 -8.34 19.7 -8 18 C-7.071875 18.165 -6.14375 18.33 -5.1875 18.5 C-2.04378647 19.07748388 -2.04378647 19.07748388 1 19 C0.67 12.73 0.34 6.46 0 0 Z " fill="#69563F" transform="translate(122,124)"/>
<path d="M0 0 C3.91593446 0.78318689 7.36406635 2.39179858 11 4 C10.67 7.96 10.34 11.92 10 16 C9.34 16 8.68 16 8 16 C8 14.02 8 12.04 8 10 C6.35 10 4.7 10 3 10 C3.66 11.98 4.32 13.96 5 16 C4.01 15.67 3.02 15.34 2 15 C1.67 12.69 1.34 10.38 1 8 C1.99 7.67 2.98 7.34 4 7 C2.02 6.01 0.04 5.02 -2 4 C-1.34 2.68 -0.68 1.36 0 0 Z " fill="#DAC2C0" transform="translate(126,225)"/>
<path d="M0 0 C0 0.99 0 1.98 0 3 C-0.9590625 3.1546875 -0.9590625 3.1546875 -1.9375 3.3125 C-2.618125 3.539375 -3.29875 3.76625 -4 4 C-4.33 4.99 -4.66 5.98 -5 7 C-3.02 6.67 -1.04 6.34 1 6 C1 6.99 1 7.98 1 9 C-0.32 9.33 -1.64 9.66 -3 10 C-3 11.98 -3 13.96 -3 16 C-4.32 16 -5.64 16 -7 16 C-7.33776684 14.2508503 -7.67003671 12.50063855 -8 10.75 C-8.185625 9.77546875 -8.37125 8.8009375 -8.5625 7.796875 C-9 5 -9 5 -9 1 C-5.92677456 0.08941469 -3.19902639 -0.08886184 0 0 Z " fill="#F4EDEC" transform="translate(109,8)"/>
<path d="M0 0 C0.99 0.33 1.98 0.66 3 1 C3 2.32 3 3.64 3 5 C7.455 6.98 7.455 6.98 12 9 C11.67 10.32 11.34 11.64 11 13 C7 11.66666667 3 10.33333333 -1 9 C-1 9.66 -1 10.32 -1 11 C-1.99 11 -2.98 11 -4 11 C-3.48964169 6.6109185 -2.47785723 3.66291938 0 0 Z " fill="#F1E8E7" transform="translate(20,70)"/>
<path d="M0 0 C1 3 1 3 0.41015625 4.953125 C-0.23098633 7.04484401 -0.23098633 7.04484401 0.99609375 8.921875 C1.70958984 9.82679687 1.70958984 9.82679687 2.4375 10.75 C2.91058594 11.36359375 3.38367187 11.9771875 3.87109375 12.609375 C4.42990234 13.29773438 4.42990234 13.29773438 5 14 C4.67 14.66 4.34 15.32 4 16 C3.01 16 2.02 16 1 16 C-0.2109375 14.46875 -0.2109375 14.46875 -1.375 12.5 C-2.59628491 10.56720962 -2.59628491 10.56720962 -4 9 C-6.71471005 8.41231617 -6.71471005 8.41231617 -9 9 C-9.33 8.01 -9.66 7.02 -10 6 C-8.71283353 4.99421411 -7.42011342 3.99553202 -6.125 3 C-5.40570313 2.443125 -4.68640625 1.88625 -3.9453125 1.3125 C-2 0 -2 0 0 0 Z " fill="#F1E8E7" transform="translate(59,27)"/>
<path d="M0 0 C-0.75 4.75 -0.75 4.75 -3 7 C-1.35 7.33 0.3 7.66 2 8 C1.67 9.32 1.34 10.64 1 12 C-3.62 11.34 -8.24 10.68 -13 10 C-13.33 9.01 -13.66 8.02 -14 7 C-12.948125 6.5875 -11.89625 6.175 -10.8125 5.75 C-7.12358969 4.18930718 -3.81793591 0 0 0 Z " fill="#F2EAEA" transform="translate(237,92)"/>
<path d="M0 0 C0.99 0.66 1.98 1.32 3 2 C2.34 3.32 1.68 4.64 1 6 C1.7425 6.268125 2.485 6.53625 3.25 6.8125 C5.86636554 7.94229421 7.80187111 9.20893202 10 11 C9.34 12.32 8.68 13.64 8 15 C7.11248047 14.33291016 7.11248047 14.33291016 6.20703125 13.65234375 C5.41683594 13.08644531 4.62664063 12.52054688 3.8125 11.9375 C3.03519531 11.36902344 2.25789063 10.80054688 1.45703125 10.21484375 C-1.51983845 8.74297336 -2.887486 9.03252229 -6 10 C-4.6302836 6.00499382 -2.74277578 3.19990508 0 0 Z " fill="#F4EDEC" transform="translate(33,50)"/>
<path d="M0 0 C1.32 0.66 2.64 1.32 4 2 C1.42215154 4.64752004 -0.91648098 6.94432065 -4 9 C-3.34 10.98 -2.68 12.96 -2 15 C-3.32 15 -4.64 15 -6 15 C-10 10.77777778 -10 10.77777778 -10 8 C-8.38542921 6.56418526 -6.70780925 5.19855217 -5 3.875 C-4.071875 3.15054688 -3.14375 2.42609375 -2.1875 1.6796875 C-1.465625 1.12539063 -0.74375 0.57109375 0 0 Z " fill="#F5EFEF" transform="translate(211,48)"/>
<path d="M0 0 C0.8353125 0.7734375 0.8353125 0.7734375 1.6875 1.5625 C3.91492729 3.28207834 3.91492729 3.28207834 6.5625 2.6875 C7.366875 2.460625 8.17125 2.23375 9 2 C9.99 2 10.98 2 12 2 C12.33 2.66 12.66 3.32 13 4 C12.01 4 11.02 4 10 4 C10.66 5.65 11.32 7.3 12 9 C15.465 8.505 15.465 8.505 19 8 C18.67 8.66 18.34 9.32 18 10 C16 10.33333333 14 10.66666667 12 11 C11.67 11.66 11.34 12.32 11 13 C10.34 11.02 9.68 9.04 9 7 C7.35 6.67 5.7 6.34 4 6 C3.01 7.98 2.02 9.96 1 12 C-0.98 11.34 -2.96 10.68 -5 10 C-5 9.67 -5 9.34 -5 9 C-4.21625 8.9175 -3.4325 8.835 -2.625 8.75 C0.14749104 8.27193661 0.14749104 8.27193661 1.3125 5.9375 C1.539375 5.298125 1.76625 4.65875 2 4 C1.01 3.67 0.02 3.34 -1 3 C-0.67 2.01 -0.34 1.02 0 0 Z " fill="#502622" transform="translate(118,108)"/>
<path d="M0 0 C3.63 0 7.26 0 11 0 C11 0.99 11 1.98 11 3 C9.68 3 8.36 3 7 3 C7 6.96 7 10.92 7 15 C6.01 15 5.02 15 4 15 C4 11.04 4 7.08 4 3 C2.68 3 1.36 3 0 3 C0 2.01 0 1.02 0 0 Z " fill="#FEFEFE" transform="translate(120,7)"/>
<path d="M0 0 C0.33 1.32 0.66 2.64 1 4 C1.66 2.68 2.32 1.36 3 0 C5.31 0 7.62 0 10 0 C9.67 0.99 9.34 1.98 9 3 C7.35 2.67 5.7 2.34 4 2 C4.66 2.66 5.32 3.32 6 4 C6.99 4 7.98 4 9 4 C9.33 6.31 9.66 8.62 10 11 C9.34 11 8.68 11 8 11 C8 10.34 8 9.68 8 9 C6.6078125 9.1546875 6.6078125 9.1546875 5.1875 9.3125 C2 9 2 9 0.0625 6.75 C-1.05652601 3.85369738 -1.14816394 2.81822057 0 0 Z " fill="#F5EEED" transform="translate(87,228)"/>
<path d="M0 0 C1.9375 0.1875 1.9375 0.1875 4 1 C4.2475 1.66 4.495 2.32 4.75 3 C5.1625 3.66 5.575 4.32 6 5 C8.05726577 5.46596191 10.01928005 5.62592147 12.125 5.7265625 C14 6 14 6 16 8 C16 9.32 16 10.64 16 12 C15.34 12 14.68 12 14 12 C14 10.68 14 9.36 14 8 C12.01508358 8.26676204 12.01508358 8.26676204 10 9 C9.67 9.99 9.34 10.98 9 12 C8.67 11.01 8.34 10.02 8 9 C6.865625 8.54625 5.73125 8.0925 4.5625 7.625 C1 6 1 6 -0.4375 3.3125 C-0.623125 2.549375 -0.80875 1.78625 -1 1 C-0.67 0.67 -0.34 0.34 0 0 Z " fill="#EADDDC" transform="translate(88,219)"/>
<path d="M0 0 C2.31 0.33 4.62 0.66 7 1 C7 2.65 7 4.3 7 6 C2.05 6.33 -2.9 6.66 -8 7 C-8 5.68 -8 4.36 -8 3 C-5.36 2.67 -2.72 2.34 0 2 C0 1.34 0 0.68 0 0 Z " fill="#F9F6F6" transform="translate(234,125)"/>
<path d="M0 0 C0.61875 0.33 1.2375 0.66 1.875 1 C3.91018344 2.14193235 3.91018344 2.14193235 6 2 C6 2.66 6 3.32 6 4 C5.34 4 4.68 4 4 4 C3.71125 4.94875 3.4225 5.8975 3.125 6.875 C2 10 2 10 0 12 C0 10.68 0 9.36 0 8 C-0.66 7.67 -1.32 7.34 -2 7 C-2 6.34 -2 5.68 -2 5 C-2.66 5 -3.32 5 -4 5 C-3.95875 6.258125 -3.9175 7.51625 -3.875 8.8125 C-3.7609626 12.29064073 -3.94074319 12.91111478 -6 16 C-6 11.38 -6 6.76 -6 2 C-3.525 2.99 -3.525 2.99 -1 4 C-0.67 2.68 -0.34 1.36 0 0 Z " fill="#6E3B37" transform="translate(119,76)"/>
<path d="M0 0 C0.99 0.33 1.98 0.66 3 1 C1.52278578 4.45201639 -0.43794001 6.64961936 -3.125 9.25 C-3.84945312 9.95640625 -4.57390625 10.6628125 -5.3203125 11.390625 C-5.87460937 11.92171875 -6.42890625 12.4528125 -7 13 C-7.99 12.01 -8.98 11.02 -10 10 C-6.7 6.7 -3.4 3.4 0 0 Z " fill="#F6F0EF" transform="translate(51,196)"/>
<path d="M0 0 C5.12583611 -0.10251672 9.94997778 -0.03590199 15 1 C15 1.99 15 2.98 15 4 C10.05 4 5.1 4 0 4 C0 2.68 0 1.36 0 0 Z " fill="#F3EBEB" transform="translate(7,117)"/>
<path d="M0 0 C1.11375 0.3403125 1.11375 0.3403125 2.25 0.6875 C1.9375 3.0625 1.9375 3.0625 1.25 5.6875 C-1.75 7.6875 -1.75 7.6875 -3.9375 7.3125 C-4.535625 7.10625 -5.13375 6.9 -5.75 6.6875 C-6.08 5.3675 -6.41 4.0475 -6.75 2.6875 C-4.29511132 0.41445492 -3.41240272 -0.38777304 0 0 Z " fill="#82302A" transform="translate(219.75,64.3125)"/>
<path d="M0 0 C3.96 1.98 7.92 3.96 12 6 C12 7.32 12 8.64 12 10 C8.50155614 9.36610765 6.15913124 7.94822306 3.25 5.9375 C2.45078125 5.38964844 1.6515625 4.84179688 0.828125 4.27734375 C0.22484375 3.85582031 -0.3784375 3.43429688 -1 3 C-0.67 2.01 -0.34 1.02 0 0 Z " fill="#F5EFEF" transform="translate(24,63)"/>
<path d="M0 0 C2.64 0 5.28 0 8 0 C7.42415568 2.38564077 6.77772405 4.66682784 6 7 C5.34 7 4.68 7 4 7 C3.67 7.66 3.34 8.32 3 9 C0.9375 6.75 0.9375 6.75 -1 4 C-0.75 1.6875 -0.75 1.6875 0 0 Z " fill="#914844" transform="translate(110,230)"/>
<path d="M0 0 C0 0.99 0 1.98 0 3 C-1.76505435 3.86604534 -3.53728074 4.71748642 -5.3125 5.5625 C-6.79169922 6.27599609 -6.79169922 6.27599609 -8.30078125 7.00390625 C-11 8 -11 8 -14 7 C-13 4 -13 4 -11.07421875 2.83203125 C-10.28660156 2.49558594 -9.49898437 2.15914062 -8.6875 1.8125 C-7.90761719 1.46832031 -7.12773437 1.12414062 -6.32421875 0.76953125 C-4 0 -4 0 0 0 Z " fill="#F7F1F1" transform="translate(30,163)"/>
<path d="M0 0 C-1.3510265 3.01015294 -2.86335687 5.11967466 -5.1875 7.453125 C-5.80367187 8.071875 -6.41984375 8.690625 -7.0546875 9.328125 C-8.01761719 10.27945313 -8.01761719 10.27945313 -9 11.25 C-9.64195313 11.8996875 -10.28390625 12.549375 -10.9453125 13.21875 C-11.86957031 14.13914062 -11.86957031 14.13914062 -12.8125 15.078125 C-13.37582031 15.63918945 -13.93914063 16.20025391 -14.51953125 16.77832031 C-16 18 -16 18 -18 18 C-16.6489735 14.98984706 -15.13664313 12.88032534 -12.8125 10.546875 C-12.19632813 9.928125 -11.58015625 9.309375 -10.9453125 8.671875 C-10.30335937 8.03765625 -9.66140625 7.4034375 -9 6.75 C-8.35804687 6.1003125 -7.71609375 5.450625 -7.0546875 4.78125 C-6.43851563 4.16765625 -5.82234375 3.5540625 -5.1875 2.921875 C-4.62417969 2.36081055 -4.06085937 1.79974609 -3.48046875 1.22167969 C-2 0 -2 0 0 0 Z " fill="#E1C08A" transform="translate(66,48)"/>
<path d="M0 0 C0.763125 0.20625 1.52625 0.4125 2.3125 0.625 C1.5625 5.375 1.5625 5.375 -0.6875 7.625 C-3.3125 7.75 -3.3125 7.75 -5.6875 7.625 C-5.875 4.75 -5.875 4.75 -5.6875 1.625 C-2.6875 -0.375 -2.6875 -0.375 0 0 Z " fill="#7F2B25" transform="translate(200.6875,40.375)"/>
<path d="M0 0 C1.9375 0.25 1.9375 0.25 4 1 C6 4 6 4 5.625 6.6875 C5.41875 7.450625 5.2125 8.21375 5 9 C3.35 9 1.7 9 0 9 C-1.36623674 6.26752652 -1.128426 4.01801098 -1 1 C-0.67 0.67 -0.34 0.34 0 0 Z " fill="#812E28" transform="translate(88,15)"/>
<path d="M0 0 C2.97 0.99 5.94 1.98 9 3 C7 7 7 7 5.125 7.9375 C2.23179718 8.0225942 1.10832763 6.88243538 -1 5 C-0.67 3.35 -0.34 1.7 0 0 Z " fill="#863631" transform="translate(224,155)"/>
<path d="M0 0 C2.33944736 0.28730055 4.6739143 0.61936779 7 1 C8.23076923 6.41538462 8.23076923 6.41538462 7.0625 9.375 C6.711875 9.91125 6.36125 10.4475 6 11 C5.01 11 4.02 11 3 11 C3.0825 10.0925 3.165 9.185 3.25 8.25 C3.31024799 4.89958592 3.31024799 4.89958592 1 2.625 C0.34 2.08875 -0.32 1.5525 -1 1 C-0.67 0.67 -0.34 0.34 0 0 Z " fill="#AD7874" transform="translate(73,213)"/>
<path d="M0 0 C0.78375 0.04125 1.5675 0.0825 2.375 0.125 C3.035 1.445 3.695 2.765 4.375 4.125 C0.415 6.105 0.415 6.105 -3.625 8.125 C-4.625 7.125 -4.625 7.125 -4.8125 4.6875 C-4.54653904 1.05270021 -3.63803315 0.17323967 0 0 Z " fill="#7F2A24" transform="translate(29.625,174.875)"/>
<path d="M0 0 C3.63 0 7.26 0 11 0 C11.33 0.99 11.66 1.98 12 3 C8.49223216 4.60355101 5.85645121 5.22036864 2 5 C1.34 3.35 0.68 1.7 0 0 Z " fill="#C32920" transform="translate(128,112)"/>
<path d="M0 0 C-0.66 1.65 -1.32 3.3 -2 5 C-4.31 5 -6.62 5 -9 5 C-9.33 3.68 -9.66 2.36 -10 1 C-6.78548731 -0.60725635 -3.56387464 -0.05748185 0 0 Z " fill="#CC251C" transform="translate(120,112)"/>
<path d="M0 0 C0.33 3.3 0.66 6.6 1 10 C0.34 10 -0.32 10 -1 10 C-1 8.02 -1 6.04 -1 4 C-2.65 4 -4.3 4 -6 4 C-5.34 5.98 -4.68 7.96 -4 10 C-4.99 9.67 -5.98 9.34 -7 9 C-7.33 6.69 -7.66 4.38 -8 2 C-1.125 0 -1.125 0 0 0 Z " fill="#F1E9E8" transform="translate(135,231)"/>
<path d="M0 0 C0 0.66 0 1.32 0 2 C-1.65 2.66 -3.3 3.32 -5 4 C-4.01 4.66 -3.02 5.32 -2 6 C-2 6.66 -2 7.32 -2 8 C-2.78375 7.79375 -3.5675 7.5875 -4.375 7.375 C-5.674375 7.189375 -5.674375 7.189375 -7 7 C-7.66 7.66 -8.32 8.32 -9 9 C-9.33 7.35 -9.66 5.7 -10 4 C-6.64877401 1.34213111 -4.39380802 0 0 0 Z " fill="#853630" transform="translate(173,220)"/>
<path d="M0 0 C1.98 0.495 1.98 0.495 4 1 C3.01 1.33 2.02 1.66 1 2 C1.2165625 2.62648437 1.433125 3.25296875 1.65625 3.8984375 C1.9346875 4.71570313 2.213125 5.53296875 2.5 6.375 C2.91765625 7.59316406 2.91765625 7.59316406 3.34375 8.8359375 C4 11 4 11 4 13 C2.68 13 1.36 13 0 13 C-0.83990451 8.17054905 -1.00699515 4.78322697 0 0 Z " fill="#C09693" transform="translate(158,216)"/>
<path d="M0 0 C0.66 0 1.32 0 2 0 C2 1.32 2 2.64 2 4 C2.66 4 3.32 4 4 4 C4.66 5.65 5.32 7.3 6 9 C4.35 9.33 2.7 9.66 1 10 C0.34 8.68 -0.32 7.36 -1 6 C-0.34 6 0.32 6 1 6 C0.34 4.35 -0.32 2.7 -1 1 C-0.67 0.67 -0.34 0.34 0 0 Z " fill="#E3D1D0" transform="translate(100,227)"/>
<path d="M0 0 C0.99 0 1.98 0 3 0 C3 0.66 3 1.32 3 2 C3.99 2.33 4.98 2.66 6 3 C6 4.32 6 5.64 6 7 C0.46153846 7.36923077 0.46153846 7.36923077 -1.875 5.5 C-2.24625 5.005 -2.6175 4.51 -3 4 C0 4 0 4 3 5 C2.04134491 2.66924071 2.04134491 2.66924071 -1 1 C-0.67 0.67 -0.34 0.34 0 0 Z " fill="#E5D4D3" transform="translate(168,223)"/>
<path d="M0 0 C7.75 0.75 7.75 0.75 10 3 C8.02 3.33 6.04 3.66 4 4 C4 4.99 4 5.98 4 7 C3.34 7 2.68 7 2 7 C1.67 6.01 1.34 5.02 1 4 C0.01 4.66 -0.98 5.32 -2 6 C-1.34 4.02 -0.68 2.04 0 0 Z " fill="#8A3D38" transform="translate(86,225)"/>
<path d="M0 0 C0.433125 0.9590625 0.433125 0.9590625 0.875 1.9375 C1.82823451 4.15206079 1.82823451 4.15206079 4 5 C3.01 6.485 3.01 6.485 2 8 C1.34 8 0.68 8 0 8 C-0.33 8.66 -0.66 9.32 -1 10 C-2.1875 7.25 -2.1875 7.25 -3 4 C-1.625 1.625 -1.625 1.625 0 0 Z " fill="#7C2721" transform="translate(128,76)"/>
<path d="M0 0 C0.33 0.66 0.66 1.32 1 2 C2.65 1.67 4.3 1.34 6 1 C5.38461538 6.53846154 5.38461538 6.53846154 3.4375 8.875 C2.7259375 9.431875 2.7259375 9.431875 2 10 C0.83487616 6.50462849 0 3.6959107 0 0 Z " fill="#E9DAD9" transform="translate(75,222)"/>
<path d="M0 0 C0.99 0 1.98 0 3 0 C3.33 2.31 3.66 4.62 4 7 C3.34 7 2.68 7 2 7 C2 6.34 2 5.68 2 5 C0.02 5 -1.96 5 -4 5 C-4 4.01 -4 3.02 -4 2 C-2.68 2 -1.36 2 0 2 C0 1.34 0 0.68 0 0 Z " fill="#E3D1D0" transform="translate(93,232)"/>
<path d="M0 0 C-0.99 0.495 -0.99 0.495 -2 1 C-1.65213292 2.97536745 -1.65213292 2.97536745 -1 5 C-0.34 5.33 0.32 5.66 1 6 C-0.32 6.33 -1.64 6.66 -3 7 C-3.33 6.01 -3.66 5.02 -4 4 C-5.65 3.67 -7.3 3.34 -9 3 C-7.14340032 -0.71319936 -3.69365381 -0.09982848 0 0 Z " fill="#F0E7E6" transform="translate(159,224)"/>
<path d="M0 0 C0 0.66 0 1.32 0 2 C-0.66 2 -1.32 2 -2 2 C-2.433125 3.423125 -2.433125 3.423125 -2.875 4.875 C-4 8 -4 8 -6 10 C-7.125 3.25 -7.125 3.25 -6 1 C-3.911361 0.32624548 -2.19636905 0 0 0 Z " fill="#80241E" transform="translate(125,78)"/>
<path d="M0 0 C3 1 3 1 5 4 C4.01 4.33 3.02 4.66 2 5 C1.67 5.66 1.34 6.32 1 7 C0.34 6.34 -0.32 5.68 -1 5 C-0.625 2.375 -0.625 2.375 0 0 Z " fill="#C09694" transform="translate(112,232)"/>
<path d="M0 0 C2.16874252 0.50603992 3.99967627 0.99983813 6 2 C6 2.66 6 3.32 6 4 C3.36 4 0.72 4 -2 4 C-1.34 2.68 -0.68 1.36 0 0 Z " fill="#85342F" transform="translate(126,225)"/>
<path d="M0 0 C1.875 0.25 1.875 0.25 4 1 C5.25 3.0625 5.25 3.0625 6 5 C3.03 4.505 3.03 4.505 0 4 C0 2.68 0 1.36 0 0 Z " fill="#853530" transform="translate(88,219)"/>
<path d="M0 0 C0.33 0 0.66 0 1 0 C1.25 7.625 1.25 7.625 -1 11 C-2 10 -2 10 -2.1875 7.1875 C-2.00782439 4.13301456 -1.57664404 2.56204656 0 0 Z " fill="#F4EDEC" transform="translate(108,230)"/>
<path d="M0 0 C-0.33 1.65 -0.66 3.3 -1 5 C-1.66 4.34 -2.32 3.68 -3 3 C-5.06874034 2.3574765 -5.06874034 2.3574765 -7 2 C-7 1.34 -7 0.68 -7 0 C-3.86650268 -1.04449911 -3.01031744 -0.93423645 0 0 Z " fill="#802D27" transform="translate(156,228)"/>
<path d="M0 0 C1.67542976 0.28604898 3.34385343 0.61781233 5 1 C5.33 2.32 5.66 3.64 6 5 C3.625 4.6875 3.625 4.6875 1 4 C0.34 3.01 -0.32 2.02 -1 1 C-0.67 0.67 -0.34 0.34 0 0 Z " fill="#83312B" transform="translate(73,213)"/>
<path d="M0 0 C0.66 0 1.32 0 2 0 C3.0326802 2.78823655 3.04509293 3.8677274 2.0625 6.75 C1.711875 7.4925 1.36125 8.235 1 9 C0.67 8.34 0.34 7.68 0 7 C-1.98 7.33 -3.96 7.66 -6 8 C-4.04783565 6.04783565 -2.46800047 5.15173355 0 4 C0 2.68 0 1.36 0 0 Z " fill="#553F32" transform="translate(190,136)"/>
<path d="M0 0 C2.875 -0.1875 2.875 -0.1875 6 0 C6.66 0.99 7.32 1.98 8 3 C6.25 3.75 6.25 3.75 4 4 C1.75 2.0625 1.75 2.0625 0 0 Z " fill="#A7241D" transform="translate(108,107)"/>
<path d="M0 0 C2.3125 -0.25 2.3125 -0.25 5 0 C6.8125 2 6.8125 2 8 4 C7.071875 3.835 6.14375 3.67 5.1875 3.5 C2.04378647 2.92251612 2.04378647 2.92251612 -1 3 C-0.67 2.01 -0.34 1.02 0 0 Z " fill="#EFE4E3" transform="translate(124,223)"/>
<path d="M0 0 C1.2077558 3.62326739 0.54311128 4.64146369 -1 8 C-2.98 7.34 -4.96 6.68 -7 6 C-7 5.67 -7 5.34 -7 5 C-5.824375 4.87625 -5.824375 4.87625 -4.625 4.75 C-1.85250896 4.27193661 -1.85250896 4.27193661 -0.6875 1.9375 C-0.460625 1.298125 -0.23375 0.65875 0 0 Z " fill="#763732" transform="translate(120,112)"/>
<path d="M0 0 C1.32 0.66 2.64 1.32 4 2 C3.67 2.99 3.34 3.98 3 5 C2.34 4.67 1.68 4.34 1 4 C0.34 4.99 -0.32 5.98 -1 7 C-1.625 5.1875 -1.625 5.1875 -2 3 C-1.34 2.01 -0.68 1.02 0 0 Z " fill="#95504B" transform="translate(71,217)"/>
<path d="M0 0 C2.64 0 5.28 0 8 0 C5 2 5 2 2 2 C1.67 3.32 1.34 4.64 1 6 C0.67 4.02 0.34 2.04 0 0 Z " fill="#84342E" transform="translate(125,231)"/>
<path d="M0 0 C2.475 0.495 2.475 0.495 5 1 C4.67 1.99 4.34 2.98 4 4 C3.01 4.33 2.02 4.66 1 5 C0.67 3.35 0.34 1.7 0 0 Z " fill="#C39B98" transform="translate(142,231)"/>
<path d="M0 0 C0.66 0 1.32 0 2 0 C2.99 2.31 3.98 4.62 5 7 C4.01 7 3.02 7 2 7 C0.5393715 4.35261084 0 3.10551666 0 0 Z " fill="#82312B" transform="translate(175,218)"/>
<path d="M0 0 C0.99 0.33 1.98 0.66 3 1 C3 2.32 3 3.64 3 5 C1.68 4.67 0.36 4.34 -1 4 C-0.67 2.68 -0.34 1.36 0 0 Z " fill="#F2EAEA" transform="translate(190,209)"/>
<path d="M0 0 C0.99 0.33 1.98 0.66 3 1 C2.67 2.32 2.34 3.64 2 5 C1.01 5 0.02 5 -1 5 C-0.67 3.35 -0.34 1.7 0 0 Z " fill="#F3EBEA" transform="translate(56,209)"/>
</svg>
